<?xml version="1.0" encoding="UTF-8" standalone="no" ?>
<!DOCTYPE svg PUBLIC "-//W3C//DTD SVG 1.1//EN" "http://www.w3.org/Graphics/SVG/1.1/DTD/svg11.dtd">
<svg xmlns="http://www.w3.org/2000/svg" xmlns:xlink="http://www.w3.org/1999/xlink" version="1.1" width="1080" height="1080" viewBox="0 0 1080 1080" xml:space="preserve">
<desc>Created with Fabric.js 5.2.4</desc>
<defs>
</defs>
<rect x="0" y="0" width="100%" height="100%" fill="transparent"></rect>
<g transform="matrix(1 0 0 1 540 540)" id="b31ec5f3-d86d-439a-b135-193b41970220"  >
<rect style="stroke: none; stroke-width: 1; stroke-dasharray: none; stroke-linecap: butt; stroke-dashoffset: 0; stroke-linejoin: miter; stroke-miterlimit: 4; fill: rgb(255,255,255); fill-rule: nonzero; opacity: 1; visibility: hidden;" vector-effect="non-scaling-stroke"  x="-540" y="-540" rx="0" ry="0" width="1080" height="1080" />
</g>
<g transform="matrix(1 0 0 1 540 540)" id="f1a5fdce-532f-4ee6-9f1e-b1822680338f"  >
</g>
<g transform="matrix(1 0 0 1 540 540)"  >
<g style="opacity: 0.37;" vector-effect="non-scaling-stroke"   >
		<g transform="matrix(1 0 0 1 0.06 0.01)" id="path0"  >
<path style="stroke: none; stroke-width: 1; stroke-dasharray: none; stroke-linecap: butt; stroke-dashoffset: 0; stroke-linejoin: miter; stroke-miterlimit: 4; fill: rgb(4,164,228); fill-opacity: 0.16; fill-rule: evenodd; opacity: 1;" vector-effect="non-scaling-stroke"  transform=" translate(-200.02, -134.69)" d="M 174.545 0.275 C 161.09 0.882 156.081 1.17 155.96 1.343 C 155.886 1.448 154.31 1.614 152.458 1.71 C 147.132 1.988 141.867 2.454 141.279 2.698 C 140.983 2.822 137.892 3.179 134.411 3.492 C 130.929 3.806 127.717 4.174 127.273 4.311 C 126.828 4.448 124.589 4.762 122.297 5.009 C 120.005 5.256 117.944 5.555 117.718 5.675 C 117.492 5.794 115.609 6.098 113.535 6.351 C 111.461 6.603 109.704 6.888 109.63 6.985 C 109.556 7.081 107.859 7.385 105.859 7.661 C 103.859 7.936 102.162 8.241 102.088 8.338 C 102.013 8.435 100.498 8.739 98.721 9.013 C 96.943 9.286 95.306 9.607 95.084 9.724 C 94.862 9.842 93.104 10.202 91.178 10.525 C 89.253 10.848 87.556 11.202 87.407 11.312 C 87.259 11.421 85.926 11.724 84.444 11.985 C 82.963 12.246 81.69 12.546 81.616 12.653 C 81.542 12.759 80.334 13.053 78.931 13.307 C 77.528 13.562 76.255 13.866 76.103 13.983 C 75.95 14.1 74.734 14.408 73.401 14.666 C 72.067 14.924 70.855 15.229 70.707 15.344 C 70.559 15.459 69.475 15.764 68.299 16.022 C 67.122 16.28 65.971 16.593 65.74 16.718 C 65.509 16.843 64.168 17.204 62.761 17.52 C 61.354 17.836 60.081 18.182 59.933 18.289 C 59.785 18.396 58.754 18.706 57.643 18.978 C 56.532 19.251 55.502 19.557 55.354 19.659 C 55.205 19.76 54.236 20.063 53.199 20.331 C 52.162 20.598 51.192 20.901 51.044 21.004 C 50.896 21.107 49.926 21.412 48.889 21.682 C 47.852 21.952 46.943 22.251 46.869 22.346 C 46.795 22.441 45.825 22.781 44.714 23.101 C 41.767 23.95 39.306 24.768 38.384 25.206 C 37.939 25.416 36.909 25.783 36.094 26.021 C 35.279 26.258 34.492 26.55 34.343 26.669 C 34.195 26.788 33.347 27.096 32.458 27.353 C 31.569 27.61 30.599 27.966 30.303 28.144 C 30.007 28.322 29.219 28.633 28.552 28.835 C 27.886 29.037 27.279 29.271 27.205 29.354 C 27.131 29.437 26.222 29.794 25.185 30.147 C 24.148 30.5 23.178 30.876 23.03 30.982 C 22.882 31.088 22.125 31.382 21.347 31.636 C 20.569 31.89 19.933 32.193 19.933 32.311 C 19.933 32.429 19.581 32.596 19.151 32.682 C 18.72 32.768 17.587 33.207 16.633 33.658 C 15.678 34.109 14.751 34.478 14.571 34.478 C 13.963 34.478 11.911 36.83 11.713 37.752 C 11.607 38.248 11.424 38.774 11.307 38.923 C 11.19 39.071 10.835 40.465 10.517 42.02 C 10.2 43.576 9.836 45.041 9.708 45.277 C 9.581 45.513 9.28 46.786 9.04 48.106 C 8.801 49.425 8.491 50.747 8.352 51.044 C 8.213 51.34 7.844 52.916 7.531 54.545 C 7.218 56.175 6.659 59.084 6.289 61.01 C 5.919 62.936 5.344 66.209 5.012 68.283 C 4.68 70.357 4.335 72.236 4.246 72.458 C 4.071 72.89 3.343 78.82 3.056 82.155 C 2.96 83.266 2.797 84.236 2.693 84.31 C 2.507 84.443 1.606 93.598 1.613 95.286 C 1.615 95.768 1.515 96.162 1.392 96.162 C -0.291 96.162 -0.303 173.055 1.379 173.692 C 1.509 173.742 1.614 174.227 1.611 174.77 C 1.6 176.535 2.508 186.528 2.691 186.667 C 2.789 186.741 3.025 188.377 3.217 190.303 C 3.408 192.229 3.726 194.835 3.923 196.094 C 4.12 197.354 4.532 200.081 4.84 202.155 C 5.147 204.229 5.511 206.168 5.648 206.465 C 5.785 206.761 6.097 208.337 6.341 209.966 C 6.585 211.596 6.877 213.051 6.989 213.199 C 7.101 213.347 7.406 214.801 7.667 216.431 C 7.928 218.061 8.225 219.455 8.327 219.529 C 8.428 219.603 8.736 220.875 9.01 222.357 C 9.284 223.838 9.608 225.232 9.73 225.455 C 9.851 225.677 10.209 227.192 10.525 228.822 C 10.841 230.451 11.194 231.906 11.31 232.054 C 11.425 232.202 11.607 232.729 11.713 233.225 C 11.94 234.287 13.754 236.162 14.784 236.4 C 15.171 236.489 15.731 236.71 16.027 236.891 C 16.323 237.072 17.172 237.444 17.912 237.718 C 18.653 237.993 19.502 238.365 19.798 238.544 C 20.094 238.724 21.034 239.087 21.886 239.35 C 22.737 239.614 23.434 239.913 23.434 240.016 C 23.434 240.119 24.222 240.428 25.185 240.704 C 26.148 240.98 26.936 241.289 26.936 241.392 C 26.936 241.494 27.633 241.78 28.485 242.028 C 29.337 242.275 30.094 242.563 30.168 242.666 C 30.326 242.886 33.029 243.771 33.544 243.771 C 33.737 243.771 33.935 243.873 33.984 243.997 C 34.072 244.219 36.546 245.115 40.269 246.273 C 41.306 246.596 42.216 246.942 42.29 247.042 C 42.365 247.142 43.213 247.427 44.176 247.676 C 45.138 247.925 46.047 248.229 46.195 248.35 C 46.343 248.472 47.253 248.775 48.215 249.024 C 49.178 249.272 50.088 249.571 50.236 249.688 C 50.384 249.805 51.354 250.109 52.391 250.364 C 53.428 250.619 54.397 250.922 54.545 251.036 C 54.694 251.151 55.997 251.526 57.441 251.871 C 58.886 252.215 60.067 252.577 60.067 252.676 C 60.067 252.775 61.158 253.077 62.492 253.348 C 63.825 253.619 64.916 253.923 64.916 254.024 C 64.916 254.125 65.976 254.427 67.273 254.695 C 68.569 254.963 69.69 255.262 69.764 255.36 C 69.838 255.457 70.99 255.757 72.323 256.027 C 73.657 256.297 74.872 256.612 75.025 256.728 C 75.178 256.843 76.45 257.144 77.853 257.395 C 79.256 257.647 80.526 257.948 80.675 258.063 C 80.824 258.179 82.46 258.543 84.311 258.873 C 86.162 259.203 87.737 259.559 87.811 259.664 C 87.886 259.769 89.37 260.076 91.111 260.347 C 92.852 260.618 94.276 260.921 94.276 261.02 C 94.276 261.12 95.822 261.422 97.71 261.692 C 99.599 261.962 101.205 262.27 101.279 262.375 C 101.354 262.48 102.99 262.776 104.916 263.032 C 106.842 263.288 108.539 263.592 108.687 263.709 C 108.835 263.826 110.653 264.124 112.727 264.371 C 114.801 264.618 116.741 264.928 117.037 265.06 C 117.599 265.311 126.235 266.397 127.664 266.397 C 128.115 266.397 128.485 266.498 128.485 266.622 C 128.485 266.745 130.97 267.073 134.007 267.35 C 137.044 267.627 139.529 267.932 139.529 268.028 C 139.529 268.125 140.589 268.287 141.886 268.388 C 154.383 269.368 153.684 269.356 199.596 269.363 C 245.887 269.369 257.76 269.107 260.337 268.021 C 260.633 267.896 263.36 267.582 266.397 267.324 C 269.434 267.066 271.98 266.775 272.054 266.678 C 272.128 266.581 274.661 266.225 277.683 265.888 C 280.706 265.55 283.372 265.171 283.609 265.045 C 283.846 264.918 285.737 264.609 287.811 264.356 C 289.886 264.104 291.643 263.818 291.717 263.721 C 291.791 263.624 293.428 263.324 295.354 263.054 C 297.279 262.784 298.976 262.473 299.125 262.363 C 299.273 262.254 300.788 261.955 302.492 261.698 C 304.195 261.442 305.71 261.14 305.859 261.027 C 306.007 260.913 307.461 260.607 309.091 260.346 C 310.721 260.085 312.114 259.788 312.189 259.686 C 312.263 259.583 313.834 259.227 315.68 258.893 C 317.527 258.56 319.163 258.189 319.317 258.07 C 319.47 257.95 320.747 257.637 322.155 257.374 C 323.562 257.11 324.835 256.809 324.983 256.705 C 325.131 256.6 326.283 256.3 327.542 256.037 C 328.801 255.774 329.953 255.473 330.101 255.367 C 330.249 255.262 331.401 254.949 332.66 254.674 C 333.919 254.398 335.01 254.094 335.084 253.998 C 335.158 253.902 336.279 253.604 337.576 253.335 C 338.872 253.065 339.933 252.76 339.933 252.657 C 339.933 252.553 340.933 252.256 342.155 251.997 C 343.377 251.737 344.741 251.362 345.185 251.163 C 345.63 250.965 346.781 250.603 347.744 250.36 C 348.707 250.117 349.618 249.816 349.769 249.692 C 349.92 249.567 350.89 249.257 351.924 249.003 C 352.959 248.749 353.926 248.449 354.074 248.337 C 354.222 248.225 354.889 247.99 355.556 247.814 C 356.222 247.638 357.131 247.323 357.576 247.115 C 358.02 246.907 359.172 246.501 360.135 246.212 C 362.285 245.568 365.646 244.401 366.734 243.922 C 367.178 243.726 368.027 243.414 368.62 243.229 C 369.212 243.044 369.818 242.803 369.966 242.694 C 370.114 242.585 370.902 242.279 371.717 242.014 C 372.532 241.75 373.441 241.385 373.737 241.205 C 374.034 241.024 374.852 240.713 375.556 240.514 C 376.259 240.315 376.835 240.062 376.835 239.952 C 376.835 239.841 377.348 239.613 377.975 239.444 C 378.602 239.275 379.663 238.868 380.332 238.54 C 381.001 238.211 382.064 237.78 382.694 237.581 C 383.323 237.383 383.838 237.138 383.838 237.037 C 383.838 236.936 384.294 236.716 384.851 236.55 C 386.517 236.05 388.104 234.719 388.304 233.653 C 388.399 233.144 388.569 232.727 388.682 232.727 C 388.794 232.727 389.149 231.424 389.471 229.832 C 389.793 228.239 390.163 226.74 390.294 226.5 C 390.425 226.261 390.738 224.928 390.99 223.537 C 391.242 222.147 391.543 220.889 391.658 220.741 C 391.774 220.593 392.089 219.138 392.359 217.508 C 392.628 215.879 392.931 214.485 393.031 214.411 C 393.13 214.337 393.413 212.943 393.658 211.313 C 393.902 209.684 394.214 208.108 394.349 207.811 C 394.484 207.515 394.787 205.818 395.022 204.04 C 395.256 202.263 395.551 200.617 395.677 200.384 C 395.802 200.151 396.185 197.545 396.527 194.593 C 396.868 191.641 397.226 189.165 397.322 189.091 C 397.417 189.017 397.706 186.532 397.962 183.569 C 398.219 180.606 398.534 177.939 398.662 177.643 C 400.372 173.694 400.335 94.967 398.622 94.321 C 398.491 94.272 398.385 93.787 398.386 93.244 C 398.39 91.583 397.487 82.298 397.308 82.155 C 397.216 82.081 396.861 79.603 396.52 76.649 C 396.179 73.696 395.798 71.089 395.672 70.858 C 395.546 70.627 395.243 68.862 394.998 66.936 C 394.753 65.01 394.469 63.374 394.366 63.3 C 394.263 63.226 393.956 61.71 393.684 59.933 C 393.411 58.155 393.105 56.64 393.003 56.566 C 392.901 56.492 392.602 55.098 392.34 53.468 C 392.077 51.838 391.77 50.384 391.657 50.236 C 391.545 50.088 391.239 48.754 390.978 47.273 C 390.717 45.791 390.415 44.519 390.308 44.444 C 390.201 44.37 389.859 42.971 389.55 41.334 C 388.745 37.077 387.374 35.057 384.695 34.185 C 384.15 34.007 383.643 33.776 383.569 33.671 C 383.495 33.566 382.768 33.262 381.953 32.995 C 381.138 32.728 380.229 32.359 379.933 32.175 C 379.636 31.991 379.091 31.753 378.721 31.646 C 378.35 31.539 377.441 31.186 376.7 30.861 C 375.96 30.536 374.808 30.1 374.141 29.894 C 373.475 29.687 372.869 29.439 372.795 29.344 C 372.721 29.248 371.993 28.955 371.178 28.691 C 370.364 28.427 369.576 28.123 369.428 28.015 C 369.279 27.907 368.431 27.597 367.542 27.327 C 366.653 27.056 365.865 26.759 365.791 26.667 C 365.717 26.574 364.929 26.277 364.04 26.007 C 363.152 25.736 362.303 25.441 362.155 25.35 C 361.739 25.096 357.806 23.758 355.556 23.105 C 354.444 22.783 353.474 22.433 353.4 22.328 C 353.326 22.223 352.477 21.938 351.514 21.694 C 350.552 21.451 349.401 21.091 348.956 20.894 C 348.512 20.697 347.481 20.384 346.667 20.199 C 345.852 20.014 345.064 19.772 344.916 19.661 C 344.768 19.55 343.737 19.234 342.626 18.958 C 341.515 18.681 340.545 18.382 340.471 18.293 C 340.397 18.203 339.125 17.852 337.643 17.513 C 336.162 17.173 334.828 16.803 334.68 16.691 C 334.532 16.579 333.38 16.28 332.121 16.027 C 330.862 15.774 329.71 15.474 329.562 15.36 C 329.414 15.246 328.323 14.95 327.138 14.701 C 325.953 14.452 324.741 14.139 324.444 14.006 C 324.148 13.873 322.875 13.57 321.616 13.333 C 320.357 13.097 319.084 12.794 318.788 12.662 C 318.492 12.529 317.158 12.223 315.825 11.982 C 314.492 11.741 313.158 11.436 312.862 11.303 C 312.566 11.17 310.808 10.811 308.956 10.504 C 307.104 10.197 305.407 9.848 305.185 9.728 C 304.963 9.609 303.327 9.286 301.549 9.013 C 299.771 8.739 298.256 8.436 298.182 8.34 C 298.108 8.245 296.411 7.948 294.411 7.681 C 292.411 7.414 290.653 7.104 290.505 6.992 C 290.357 6.88 288.599 6.59 286.599 6.347 C 284.599 6.104 282.716 5.803 282.414 5.678 C 282.112 5.553 279.93 5.245 277.566 4.993 C 275.201 4.741 273.08 4.439 272.853 4.322 C 272.625 4.204 269.413 3.826 265.715 3.481 C 262.016 3.137 258.929 2.775 258.855 2.677 C 258.781 2.579 255.63 2.278 251.852 2.008 C 248.074 1.737 244.923 1.435 244.848 1.335 C 244.163 0.411 189.722 -0.41 174.545 0.275 M 220.202 23.449 C 223.758 23.606 226.909 23.837 227.205 23.962 C 227.502 24.088 230.532 24.4 233.939 24.656 C 237.347 24.912 240.195 25.204 240.269 25.304 C 240.343 25.404 242.525 25.706 245.118 25.975 C 247.71 26.244 249.892 26.546 249.966 26.647 C 250.04 26.747 251.737 27.048 253.737 27.315 C 255.737 27.583 257.495 27.879 257.643 27.975 C 257.791 28.07 259.367 28.413 261.145 28.736 C 266.23 29.661 271.071 30.697 271.545 30.961 C 271.783 31.094 273.056 31.415 274.373 31.673 C 275.69 31.932 276.828 32.219 276.902 32.312 C 276.976 32.404 278.007 32.702 279.192 32.973 C 280.377 33.244 281.468 33.558 281.616 33.671 C 281.764 33.784 282.791 34.08 283.898 34.329 C 285.006 34.578 286.036 34.884 286.188 35.01 C 286.34 35.135 287.247 35.44 288.204 35.688 C 289.16 35.935 290.251 36.292 290.628 36.481 C 291.005 36.67 292.162 37.049 293.199 37.322 C 294.236 37.596 295.23 37.962 295.408 38.137 C 295.586 38.311 296.192 38.538 296.754 38.641 C 297.317 38.744 298.02 38.982 298.316 39.17 C 298.613 39.359 299.522 39.732 300.337 40 C 301.152 40.268 302.061 40.639 302.357 40.826 C 302.653 41.013 303.411 41.316 304.04 41.501 C 304.67 41.685 305.185 41.919 305.185 42.02 C 305.185 42.121 305.7 42.355 306.33 42.54 C 306.96 42.724 307.96 43.154 308.552 43.495 C 309.145 43.837 310.145 44.269 310.774 44.457 C 311.404 44.645 311.919 44.885 311.919 44.989 C 311.919 45.094 312.491 45.398 313.191 45.665 C 313.89 45.932 314.587 46.255 314.74 46.382 C 314.892 46.51 315.562 46.892 316.229 47.231 C 318.747 48.513 322.295 50.465 322.424 50.64 C 322.498 50.74 323.074 51.047 323.704 51.322 C 324.333 51.596 324.848 51.9 324.848 51.997 C 324.848 52.095 325.333 52.393 325.926 52.66 C 326.519 52.927 327.003 53.23 327.003 53.333 C 327.003 53.436 327.488 53.74 328.081 54.007 C 328.673 54.274 329.158 54.599 329.158 54.729 C 329.158 54.86 329.37 55.042 329.63 55.135 C 329.889 55.228 330.663 55.709 331.349 56.204 C 332.036 56.699 332.727 57.104 332.885 57.104 C 333.043 57.104 333.269 57.265 333.387 57.462 C 333.506 57.659 334.027 58.053 334.545 58.338 C 335.064 58.622 335.647 59.067 335.84 59.327 C 336.034 59.586 336.323 59.798 336.483 59.798 C 336.642 59.798 337.049 60.071 337.387 60.404 C 337.724 60.737 338.283 61.218 338.63 61.472 C 339.486 62.101 341.469 63.698 342.681 64.735 C 344.558 66.341 352.725 74.589 354.343 76.513 C 355.232 77.57 356.085 78.575 356.238 78.746 C 356.391 78.917 356.812 79.481 357.173 80 C 357.535 80.519 357.93 81.064 358.053 81.212 C 358.175 81.36 358.754 82.148 359.34 82.963 C 359.926 83.778 360.51 84.573 360.638 84.731 C 360.765 84.888 361.007 85.273 361.174 85.585 C 361.341 85.898 361.635 86.314 361.827 86.511 C 362.018 86.708 362.386 87.318 362.644 87.867 C 362.901 88.417 363.22 88.932 363.351 89.014 C 363.482 89.095 363.865 89.736 364.201 90.439 C 364.536 91.142 364.884 91.778 364.973 91.852 C 365.272 92.1 368.452 98.712 368.633 99.461 C 368.732 99.869 368.916 100.202 369.042 100.202 C 369.169 100.202 369.405 100.695 369.567 101.296 C 369.729 101.898 370.218 103.282 370.655 104.372 C 371.091 105.461 371.449 106.575 371.449 106.846 C 371.45 107.118 371.614 107.652 371.813 108.033 C 372.012 108.414 372.382 109.626 372.635 110.727 C 372.889 111.827 373.197 112.917 373.321 113.149 C 373.444 113.381 373.749 114.896 373.997 116.516 C 374.246 118.136 374.554 119.659 374.682 119.901 C 375.978 122.353 375.989 148.037 374.696 150.976 C 374.565 151.273 374.252 152.848 374 154.478 C 373.748 156.108 373.458 157.502 373.356 157.576 C 373.253 157.65 372.952 158.741 372.687 160 C 372.421 161.259 372.106 162.411 371.986 162.559 C 371.865 162.707 371.58 163.547 371.351 164.425 C 370.595 167.327 370.763 167.273 362.478 167.273 C 353.92 167.273 354.661 167.66 354.223 162.963 C 354.05 161.111 353.803 159.354 353.675 159.057 C 353.546 158.761 353.233 156.337 352.979 153.67 C 352.724 151.003 352.429 148.7 352.322 148.552 C 352.214 148.404 351.908 146.04 351.64 143.3 C 351.372 140.559 351.078 138.256 350.985 138.182 C 350.892 138.108 350.543 135.32 350.209 131.987 C 349.875 128.653 349.497 125.684 349.37 125.387 C 349.242 125.091 348.939 122.727 348.696 120.135 C 348.453 117.542 348.146 115.178 348.015 114.882 C 347.884 114.586 347.579 112.283 347.338 109.764 C 347.097 107.246 346.796 104.943 346.67 104.646 C 346.543 104.35 346.226 101.926 345.964 99.259 C 345.703 96.593 345.411 94.35 345.317 94.276 C 345.222 94.202 344.928 91.905 344.664 89.172 C 344.349 85.905 344.045 83.99 343.778 83.582 L 343.372 82.963 L 332.689 82.963 C 321.041 82.963 321.07 82.959 320.684 84.496 C 320.583 84.902 320.269 85.74 319.987 86.358 C 319.706 86.976 319.326 88.041 319.143 88.724 C 318.96 89.407 318.729 89.966 318.628 89.966 C 318.528 89.966 318.243 90.603 317.995 91.38 C 317.748 92.158 317.331 93.279 317.07 93.872 C 316.809 94.465 316.427 95.495 316.222 96.162 C 316.016 96.828 315.769 97.434 315.674 97.508 C 315.578 97.582 315.285 98.31 315.021 99.125 C 314.757 99.939 314.452 100.727 314.343 100.875 C 314.234 101.024 313.93 101.811 313.666 102.626 C 313.402 103.441 313.108 104.168 313.013 104.242 C 312.917 104.316 312.674 104.923 312.471 105.589 C 312.269 106.256 311.96 107.044 311.784 107.34 C 311.608 107.636 311.184 108.727 310.843 109.764 C 310.502 110.801 310.144 111.71 310.048 111.785 C 309.952 111.859 309.648 112.677 309.372 113.603 C 309.096 114.529 308.782 115.286 308.674 115.286 C 308.566 115.286 308.264 116.074 308.003 117.037 C 307.743 118 307.441 118.788 307.333 118.788 C 307.226 118.788 306.912 119.576 306.636 120.539 C 306.36 121.502 306.047 122.29 305.94 122.29 C 305.832 122.29 305.607 122.805 305.439 123.434 C 305.271 124.064 304.865 125.185 304.536 125.926 C 304.208 126.667 303.77 127.818 303.564 128.485 C 303.357 129.152 303.109 129.758 303.014 129.832 C 302.918 129.906 302.625 130.633 302.361 131.448 C 302.097 132.263 301.792 133.051 301.684 133.199 C 301.575 133.347 301.27 134.135 301.006 134.949 C 300.742 135.764 300.446 136.492 300.348 136.566 C 300.249 136.64 299.945 137.428 299.671 138.316 C 299.398 139.205 299.031 140.175 298.855 140.471 C 298.68 140.768 298.371 141.556 298.168 142.222 C 297.966 142.889 297.722 143.495 297.627 143.569 C 297.532 143.643 297.175 144.552 296.833 145.589 C 296.492 146.626 296.066 147.717 295.887 148.013 C 295.708 148.31 295.408 149.128 295.22 149.832 C 295.033 150.535 294.793 151.111 294.688 151.111 C 294.582 151.111 294.271 151.869 293.995 152.795 C 293.719 153.721 293.41 154.539 293.308 154.613 C 293.206 154.687 292.938 155.354 292.711 156.094 C 292.485 156.835 292.048 157.95 291.739 158.573 C 291.431 159.195 291.178 159.839 291.178 160.004 C 291.178 160.168 290.883 160.932 290.522 161.7 C 290.161 162.469 289.722 163.673 289.547 164.377 C 289.372 165.081 289.141 165.657 289.034 165.657 C 288.927 165.657 288.696 166.136 288.52 166.722 C 287.951 168.623 287.963 168.62 282.284 168.62 L 277.199 168.62 L 276.763 167.205 C 276.523 166.428 276.029 163.185 275.664 160 C 274.396 148.925 273.776 143.971 273.609 143.569 C 273.516 143.347 273.243 141.104 273.001 138.586 C 272.759 136.067 272.453 133.764 272.322 133.468 C 272.19 133.172 271.876 130.747 271.624 128.081 C 271.372 125.414 271.081 123.172 270.978 123.098 C 270.305 122.612 270.083 113.652 270.734 113.249 C 270.872 113.164 271.241 112.588 271.555 111.968 C 271.869 111.349 272.214 110.781 272.322 110.707 C 272.429 110.633 272.733 110.148 272.997 109.63 C 273.26 109.111 273.564 108.626 273.671 108.552 C 273.779 108.478 274.127 107.933 274.445 107.34 C 274.763 106.747 275.173 106.024 275.356 105.731 C 275.54 105.439 276.14 104.469 276.691 103.576 C 277.241 102.683 277.786 101.832 277.903 101.684 C 278.019 101.535 278.357 100.929 278.653 100.337 C 278.949 99.744 279.343 99.162 279.529 99.044 C 279.714 98.925 279.865 98.683 279.865 98.504 C 279.865 98.326 280.29 97.583 280.808 96.854 C 281.327 96.125 281.751 95.368 281.751 95.171 C 281.751 94.975 281.848 94.815 281.967 94.815 C 282.086 94.815 282.48 94.211 282.843 93.472 C 283.205 92.734 283.574 92.128 283.663 92.125 C 283.751 92.123 284.043 91.636 284.31 91.044 C 284.577 90.451 284.88 89.966 284.983 89.966 C 285.086 89.966 285.389 89.481 285.657 88.889 C 285.924 88.296 286.227 87.811 286.33 87.811 C 286.433 87.811 286.746 87.296 287.025 86.667 C 287.304 86.037 287.695 85.395 287.895 85.24 C 288.095 85.085 288.279 84.54 288.304 84.028 L 288.35 83.098 L 278.249 83.019 C 265.663 82.92 266.404 82.718 263.629 87.003 C 263.006 87.966 262.343 88.851 262.157 88.97 C 261.971 89.088 261.818 89.338 261.818 89.525 C 261.818 89.712 261.6 90.1 261.333 90.387 C 261.067 90.674 260.612 91.325 260.323 91.834 C 260.034 92.343 259.639 92.949 259.444 93.181 C 258.457 94.358 257.499 95.745 257.187 96.45 C 256.995 96.884 256.75 97.239 256.642 97.239 C 256.533 97.239 256.243 97.633 255.996 98.114 C 255.75 98.596 255.455 99.051 255.341 99.125 C 255.057 99.31 253.199 102.03 253.199 102.26 C 253.199 102.363 253.011 102.638 252.782 102.873 C 252.553 103.108 251.777 104.149 251.058 105.188 C 249.432 107.537 246.952 109.02 246.33 108.013 C 246.232 107.855 244.627 107.744 242.424 107.744 C 238.739 107.744 238.03 107.58 238.588 106.857 C 238.726 106.678 239.055 105.259 239.318 103.704 C 239.582 102.148 239.888 100.754 240 100.606 C 240.111 100.458 240.403 99.185 240.65 97.778 C 240.896 96.37 241.211 94.976 241.349 94.68 C 241.487 94.384 241.838 92.929 242.129 91.448 C 242.42 89.966 242.846 88.027 243.076 87.138 C 244.22 82.709 244.881 82.971 232.558 82.967 C 221.794 82.963 222.374 82.861 222.065 84.795 C 221.965 85.417 221.801 85.926 221.698 85.926 C 221.596 85.926 221.293 87.108 221.025 88.552 C 220.757 89.997 220.443 91.3 220.327 91.448 C 220.211 91.596 219.907 92.869 219.651 94.276 C 219.395 95.684 219.104 96.896 219.006 96.97 C 218.827 97.104 218.228 99.587 216.896 105.724 C 216.51 107.502 216.114 109.017 216.018 109.091 C 215.921 109.165 215.624 110.377 215.358 111.785 C 215.092 113.192 214.777 114.468 214.659 114.621 C 214.54 114.774 214.235 116.046 213.981 117.449 C 213.727 118.852 213.437 120.061 213.336 120.135 C 213.236 120.209 212.947 121.36 212.694 122.694 C 212.441 124.027 212.118 125.36 211.975 125.657 C 211.724 126.179 211.456 127.323 209.92 134.411 C 209.519 136.263 209.109 137.838 209.01 137.912 C 208.911 137.987 208.609 139.229 208.339 140.673 C 208.068 142.118 207.769 143.3 207.672 143.3 C 207.576 143.3 207.273 144.542 206.998 146.061 C 206.723 147.579 206.423 148.882 206.331 148.956 C 206.239 149.03 205.905 150.242 205.589 151.65 C 203.933 159.01 203.61 160.356 203.398 160.766 C 203.271 161.011 202.947 162.394 202.679 163.838 C 202.41 165.283 202.092 166.465 201.971 166.465 C 201.85 166.465 201.751 166.694 201.751 166.974 C 201.751 168.617 201.616 168.64 192.189 168.559 L 183.569 168.485 L 183.636 166.346 C 183.674 165.169 183.805 164.139 183.928 164.056 C 184.051 163.973 184.367 162.572 184.63 160.943 C 184.892 159.313 185.203 157.859 185.32 157.71 C 185.437 157.562 185.745 156.108 186.005 154.478 C 186.265 152.848 186.567 151.394 186.676 151.246 C 186.785 151.098 187.084 149.704 187.34 148.148 C 187.596 146.593 187.899 145.199 188.013 145.051 C 188.128 144.902 188.423 143.508 188.67 141.953 C 188.916 140.397 189.226 138.862 189.358 138.541 C 189.49 138.219 189.852 136.462 190.163 134.635 C 190.473 132.808 190.831 131.123 190.958 130.892 C 191.085 130.66 191.403 129.145 191.666 127.525 C 191.929 125.905 192.223 124.519 192.32 124.444 C 192.416 124.37 192.717 122.976 192.987 121.347 C 193.257 119.717 193.563 118.263 193.666 118.114 C 193.769 117.966 194.072 116.512 194.34 114.882 C 194.607 113.253 194.932 111.782 195.062 111.615 C 195.191 111.448 195.325 110.66 195.359 109.864 L 195.421 108.418 L 174.776 108.349 C 151.437 108.27 153.311 108.486 154.479 106.016 C 154.849 105.234 155.152 104.423 155.152 104.212 C 155.152 104.002 155.383 103.398 155.666 102.87 C 155.949 102.342 156.372 101.268 156.605 100.483 C 156.838 99.698 157.136 98.919 157.267 98.753 C 157.397 98.587 157.721 97.785 157.986 96.97 C 158.25 96.155 158.611 95.246 158.787 94.949 C 158.963 94.653 159.272 93.865 159.475 93.199 C 159.677 92.532 159.921 91.926 160.016 91.852 C 160.112 91.778 160.406 91.051 160.669 90.236 C 160.933 89.421 161.238 88.633 161.347 88.485 C 161.456 88.337 161.758 87.549 162.018 86.734 C 162.278 85.919 162.597 85.137 162.727 84.997 C 163.123 84.568 162.994 83.302 162.537 83.126 C 161.773 82.833 141.688 82.941 141.127 83.242 C 140.841 83.395 140.606 83.698 140.606 83.915 C 140.606 84.132 140.495 84.31 140.358 84.31 C 140.222 84.31 139.916 84.897 139.677 85.615 C 139.439 86.333 139.005 87.389 138.713 87.961 C 138.421 88.534 138.182 89.193 138.182 89.425 C 138.182 89.657 138.015 90.086 137.811 90.378 C 137.607 90.67 137.154 91.758 136.805 92.795 C 136.456 93.832 136.096 94.741 136.004 94.815 C 135.912 94.889 135.619 95.616 135.352 96.431 C 135.085 97.246 134.717 98.155 134.534 98.451 C 134.351 98.747 134.064 99.424 133.896 99.955 C 133.728 100.485 133.351 101.39 133.058 101.965 C 132.765 102.539 132.525 103.199 132.525 103.431 C 132.525 103.663 132.361 104.092 132.16 104.385 C 131.811 104.892 131.452 105.785 129.885 110.034 C 129.502 111.071 129.109 111.98 129.012 112.054 C 128.914 112.128 128.63 112.806 128.382 113.561 C 128.134 114.316 127.692 115.402 127.4 115.975 C 127.108 116.548 126.869 117.162 126.869 117.341 C 126.869 117.52 126.566 118.269 126.195 119.007 C 125.825 119.744 125.522 120.515 125.522 120.72 C 125.522 120.925 125.358 121.331 125.157 121.624 C 124.956 121.916 124.578 122.822 124.318 123.636 C 124.058 124.451 123.695 125.36 123.513 125.657 C 123.33 125.953 122.976 126.813 122.727 127.568 C 122.478 128.323 122.035 129.409 121.743 129.982 C 121.451 130.554 121.212 131.171 121.212 131.352 C 121.212 131.533 120.926 132.245 120.577 132.935 C 119.92 134.229 119.596 134.13 119.596 132.634 C 119.596 132.274 119.484 131.769 119.346 131.511 C 119.209 131.254 118.899 129.468 118.658 127.542 C 118.416 125.616 118.114 123.798 117.985 123.502 C 117.856 123.205 117.553 121.327 117.31 119.327 C 117.068 117.327 116.759 115.348 116.624 114.929 C 116.488 114.511 116.129 112.329 115.825 110.081 C 115.522 107.833 115.163 105.751 115.029 105.455 C 114.895 105.158 114.576 103.219 114.321 101.145 C 114.065 99.071 113.777 97.313 113.68 97.239 C 113.583 97.165 113.289 95.407 113.028 93.333 C 112.766 91.259 112.447 89.32 112.318 89.024 C 112.189 88.727 111.95 87.394 111.787 86.061 C 111.379 82.737 112.051 82.963 102.592 82.963 C 92.854 82.963 92.878 82.955 91.807 86.397 C 91.612 87.027 91.37 87.542 91.271 87.542 C 91.172 87.542 90.832 88.343 90.515 89.322 C 90.199 90.301 89.775 91.362 89.572 91.679 C 89.37 91.996 89.054 92.771 88.87 93.401 C 88.685 94.03 88.445 94.545 88.337 94.545 C 88.228 94.545 88.058 94.879 87.958 95.286 C 87.858 95.694 87.421 96.785 86.986 97.711 C 86.551 98.637 86.194 99.547 86.194 99.731 C 86.193 99.916 85.951 100.431 85.657 100.875 C 85.362 101.32 85.121 101.841 85.12 102.033 C 85.119 102.226 84.865 102.892 84.556 103.515 C 84.246 104.137 83.762 105.3 83.48 106.099 C 83.197 106.897 82.862 107.685 82.735 107.849 C 82.608 108.014 82.274 108.815 81.993 109.63 C 81.712 110.444 81.349 111.253 81.186 111.426 C 81.024 111.599 80.735 112.296 80.545 112.975 C 80.355 113.653 80.113 114.209 80.008 114.209 C 79.902 114.209 79.596 114.936 79.327 115.825 C 79.057 116.714 78.755 117.441 78.654 117.441 C 78.553 117.441 78.309 117.956 78.113 118.586 C 77.916 119.215 77.542 120.155 77.282 120.673 C 77.021 121.192 76.593 122.222 76.33 122.963 C 76.068 123.704 75.773 124.37 75.676 124.444 C 75.579 124.519 75.347 125.064 75.161 125.657 C 74.974 126.249 74.674 126.976 74.493 127.273 C 74.313 127.569 73.933 128.478 73.649 129.293 C 73.365 130.108 72.999 130.916 72.836 131.089 C 72.673 131.262 72.383 131.964 72.192 132.648 C 71.668 134.519 71.285 134.003 70.887 130.889 C 70.69 129.344 70.425 127.838 70.298 127.542 C 70.172 127.246 69.813 124.7 69.502 121.886 C 69.19 119.071 68.825 116.465 68.691 116.094 C 68.556 115.724 68.238 113.542 67.984 111.246 C 67.73 108.949 67.443 107.01 67.347 106.936 C 67.251 106.862 66.951 104.862 66.681 102.492 C 66.411 100.121 66.102 98.061 65.994 97.912 C 65.887 97.764 65.583 95.704 65.319 93.333 C 65.055 90.963 64.757 88.963 64.656 88.889 C 64.556 88.815 64.346 87.612 64.189 86.216 C 63.792 82.673 64.874 82.963 52.07 82.963 C 44.914 82.963 41.212 82.87 41.212 82.69 C 41.212 82.157 42.07 80.958 43.639 79.298 C 43.934 78.986 44.175 78.614 44.175 78.471 C 44.175 78.329 44.448 77.953 44.781 77.636 C 45.114 77.32 46.114 76.21 47.003 75.171 C 49.014 72.82 57.349 64.529 57.903 64.329 C 58.035 64.281 58.545 63.913 59.037 63.511 C 62.586 60.609 63.777 59.692 64.308 59.45 C 64.643 59.297 64.916 59.083 64.916 58.973 C 64.916 58.864 65.31 58.525 65.791 58.221 C 67.194 57.335 70.68 54.992 71.002 54.718 C 71.164 54.581 71.709 54.256 72.214 53.998 C 72.718 53.739 73.192 53.44 73.266 53.333 C 73.34 53.227 73.825 52.923 74.343 52.66 C 74.862 52.396 75.347 52.093 75.421 51.985 C 75.495 51.878 76.092 51.501 76.747 51.147 C 77.402 50.794 78.614 50.129 79.44 49.67 C 81.553 48.495 92.28 43.098 92.502 43.098 C 92.603 43.098 93.591 42.673 94.698 42.155 C 95.806 41.636 96.883 41.212 97.091 41.212 C 97.299 41.212 97.63 41.056 97.826 40.866 C 98.022 40.675 98.939 40.293 99.865 40.015 C 100.791 39.738 101.549 39.427 101.549 39.324 C 101.549 39.221 102.337 38.924 103.3 38.663 C 104.263 38.403 105.051 38.082 105.051 37.95 C 105.051 37.818 105.244 37.71 105.481 37.71 C 105.718 37.71 107.357 37.226 109.123 36.633 C 110.89 36.04 112.484 35.555 112.666 35.554 C 112.848 35.553 113.309 35.389 113.69 35.191 C 114.071 34.992 115.283 34.61 116.383 34.343 C 117.484 34.076 118.444 33.778 118.519 33.681 C 118.593 33.584 119.684 33.276 120.943 32.997 C 122.202 32.717 123.293 32.411 123.367 32.316 C 123.441 32.221 124.653 31.916 126.061 31.638 C 127.468 31.361 128.68 31.055 128.754 30.959 C 128.828 30.864 130.343 30.522 132.121 30.201 C 133.899 29.879 135.596 29.507 135.892 29.375 C 136.189 29.243 137.825 28.926 139.529 28.671 C 141.232 28.416 142.747 28.12 142.896 28.014 C 143.044 27.908 144.801 27.604 146.801 27.34 C 148.801 27.076 150.559 26.768 150.707 26.656 C 150.855 26.544 152.916 26.249 155.286 26.001 C 157.657 25.752 159.838 25.446 160.135 25.32 C 160.692 25.083 170.028 24.238 172.058 24.241 C 172.689 24.242 173.416 24.122 173.674 23.975 C 174.878 23.286 207.993 22.912 220.202 23.449 M 181.603 83.286 C 181.425 83.464 181.279 83.767 181.279 83.96 C 181.279 84.152 181.176 84.31 181.05 84.31 C 180.923 84.31 180.607 85.613 180.348 87.205 C 180.088 88.798 179.783 90.222 179.668 90.37 C 179.554 90.519 179.246 91.912 178.984 93.468 C 178.721 95.024 178.403 96.411 178.277 96.552 C 177.866 97.01 178.011 98.784 178.473 98.961 C 179.38 99.309 197.284 99.124 197.761 98.762 C 198.061 98.534 198.36 97.556 198.643 95.875 C 198.878 94.477 199.182 93.091 199.318 92.795 C 199.454 92.498 199.768 90.983 200.015 89.428 C 200.263 87.872 200.559 86.478 200.674 86.33 C 201.294 85.529 201.261 83.308 200.626 83.138 C 199.382 82.805 181.948 82.941 181.603 83.286 M 43.021 99.292 C 43.797 99.5 43.804 99.529 44.318 105.051 C 44.559 107.643 44.858 110.007 44.982 110.303 C 45.107 110.599 45.409 113.024 45.654 115.69 C 45.9 118.357 46.203 120.781 46.329 121.077 C 46.454 121.374 46.771 123.798 47.032 126.465 C 47.294 129.131 47.587 131.374 47.684 131.448 C 47.782 131.522 48.08 133.764 48.347 136.431 C 48.614 139.098 48.912 141.34 49.008 141.414 C 49.105 141.488 49.457 144.276 49.792 147.609 C 50.127 150.943 50.508 153.973 50.64 154.343 C 50.771 154.714 51.076 157.259 51.316 160 C 51.556 162.741 51.855 165.226 51.98 165.522 C 52.105 165.818 52.454 168.485 52.756 171.448 C 53.484 178.601 54.069 182.661 54.42 183.012 C 54.983 183.576 73.376 183.393 74.012 182.817 C 74.517 182.36 77.037 176.843 77.037 176.195 C 77.037 176.029 77.142 175.892 77.27 175.892 C 77.397 175.892 77.712 175.226 77.968 174.411 C 78.224 173.596 78.525 172.929 78.636 172.929 C 78.747 172.929 78.988 172.414 79.173 171.785 C 79.357 171.155 79.656 170.397 79.837 170.101 C 80.018 169.805 80.388 168.956 80.66 168.215 C 80.931 167.475 81.242 166.747 81.35 166.599 C 81.657 166.178 83.723 161.229 83.921 160.439 C 84.019 160.049 84.196 159.731 84.314 159.731 C 84.432 159.731 84.739 159.064 84.995 158.249 C 85.251 157.434 85.552 156.768 85.664 156.768 C 85.776 156.768 85.945 156.46 86.039 156.084 C 86.133 155.709 86.567 154.622 87.003 153.67 C 87.439 152.718 87.873 151.631 87.968 151.256 C 88.062 150.88 88.223 150.572 88.326 150.572 C 88.429 150.572 88.734 149.936 89.005 149.158 C 89.275 148.38 89.644 147.502 89.825 147.205 C 90.005 146.909 90.363 146.03 90.62 145.253 C 90.877 144.475 91.185 143.838 91.306 143.838 C 91.426 143.838 91.606 143.505 91.705 143.098 C 91.805 142.69 92.243 141.599 92.677 140.673 C 93.112 139.746 93.472 138.898 93.476 138.787 C 93.481 138.676 93.845 137.862 94.285 136.977 C 94.724 136.091 95.084 135.152 95.084 134.889 C 95.084 134.626 95.195 134.411 95.331 134.411 C 95.467 134.411 95.693 134.077 95.833 133.67 C 96.056 133.024 96.112 133.171 96.27 134.815 C 96.369 135.852 96.626 137.67 96.842 138.855 C 97.057 140.04 97.423 142.889 97.654 145.185 C 97.886 147.481 98.18 149.603 98.307 149.899 C 98.433 150.195 98.738 152.498 98.983 155.017 C 99.228 157.535 99.535 159.838 99.665 160.135 C 99.794 160.431 100.098 162.734 100.339 165.253 C 100.58 167.771 100.883 170.074 101.012 170.37 C 101.141 170.667 101.459 173.242 101.719 176.094 C 101.979 178.946 102.289 181.279 102.409 181.279 C 102.528 181.279 102.628 181.552 102.63 181.886 C 102.64 183.33 102.386 183.293 112.929 183.382 C 123.412 183.47 123.959 183.413 124.51 182.16 C 124.69 181.75 124.912 181.354 125.004 181.279 C 125.095 181.205 125.393 180.418 125.666 179.529 C 125.938 178.64 126.242 177.852 126.341 177.778 C 126.439 177.704 126.737 176.976 127.003 176.162 C 127.269 175.347 127.567 174.62 127.666 174.545 C 127.764 174.471 128.069 173.684 128.342 172.795 C 128.616 171.906 128.991 170.936 129.175 170.64 C 129.36 170.343 129.732 169.374 130.001 168.485 C 130.27 167.596 130.567 166.808 130.66 166.734 C 130.753 166.66 131.047 165.933 131.313 165.118 C 131.579 164.303 131.877 163.576 131.976 163.502 C 132.074 163.428 132.379 162.64 132.652 161.751 C 132.925 160.862 133.293 159.892 133.468 159.596 C 133.643 159.3 133.953 158.512 134.155 157.845 C 134.357 157.178 134.6 156.572 134.694 156.498 C 134.788 156.424 135.12 155.636 135.432 154.747 C 136.703 151.128 137.487 149.084 137.653 148.956 C 137.75 148.882 138.053 148.094 138.326 147.205 C 138.598 146.316 138.902 145.529 139.001 145.455 C 139.1 145.38 139.335 144.835 139.523 144.242 C 139.711 143.65 140.153 142.525 140.505 141.743 C 140.857 140.961 141.145 140.171 141.145 139.988 C 141.145 139.805 141.376 139.223 141.659 138.695 C 141.943 138.167 142.365 137.093 142.598 136.308 C 142.831 135.522 143.133 134.744 143.268 134.578 C 143.403 134.412 143.698 133.67 143.923 132.929 C 144.149 132.189 144.585 131.073 144.894 130.451 C 145.202 129.828 145.455 129.176 145.455 129.001 C 145.455 128.353 146.587 126.881 147.396 126.477 C 148.399 125.977 168.62 125.836 168.62 126.33 C 168.62 126.478 168.814 126.599 169.053 126.599 C 169.366 126.599 169.446 126.768 169.34 127.205 C 169.26 127.539 169.044 128.811 168.86 130.034 C 168.677 131.256 168.446 132.256 168.347 132.256 C 168.249 132.256 167.947 133.559 167.677 135.152 C 167.406 136.744 167.105 138.108 167.007 138.182 C 166.908 138.256 166.61 139.589 166.344 141.145 C 166.077 142.7 165.768 144.094 165.657 144.242 C 165.545 144.391 165.238 145.785 164.975 147.34 C 164.712 148.896 164.409 150.29 164.302 150.438 C 164.196 150.586 163.835 152.222 163.502 154.074 C 163.168 155.926 162.803 157.562 162.691 157.71 C 162.579 157.859 162.275 159.192 162.016 160.673 C 161.757 162.155 161.455 163.488 161.347 163.636 C 161.238 163.785 160.944 165.118 160.693 166.599 C 160.442 168.081 160.126 169.535 159.991 169.832 C 159.856 170.128 159.555 171.461 159.322 172.795 C 159.089 174.128 158.787 175.461 158.65 175.758 C 157.633 177.958 157.317 183.033 158.182 183.265 C 159.302 183.565 217.5 183.456 218.372 183.152 C 219.214 182.859 219.539 182.169 219.95 179.798 C 220.053 179.205 220.231 178.599 220.346 178.451 C 220.461 178.303 220.768 177.091 221.029 175.758 C 221.29 174.424 221.585 173.273 221.684 173.199 C 221.782 173.125 222.073 171.994 222.33 170.686 C 222.587 169.378 223.014 167.62 223.28 166.78 C 223.545 165.94 223.916 164.404 224.105 163.367 C 224.294 162.33 224.539 161.36 224.65 161.212 C 224.761 161.064 225.067 159.912 225.33 158.653 C 225.593 157.394 225.898 156.242 226.01 156.094 C 226.121 155.946 226.423 154.734 226.681 153.401 C 226.939 152.067 227.242 150.855 227.354 150.707 C 227.467 150.559 227.77 149.347 228.028 148.013 C 228.286 146.68 228.589 145.468 228.701 145.32 C 228.813 145.172 229.179 143.657 229.515 141.953 C 229.85 140.249 230.206 138.795 230.305 138.721 C 230.404 138.646 230.709 137.495 230.982 136.162 C 231.256 134.828 231.559 133.677 231.657 133.603 C 231.755 133.529 232.055 132.316 232.323 130.909 C 232.592 129.502 232.899 128.29 233.007 128.215 C 233.115 128.141 233.248 127.848 233.302 127.564 C 233.542 126.303 234.592 126.101 241.031 126.08 L 247.045 126.061 L 247.785 126.801 C 248.491 127.508 248.548 127.766 249.016 132.391 C 249.286 135.057 249.588 137.3 249.688 137.374 C 249.788 137.448 250.14 140.357 250.47 143.838 C 250.8 147.32 251.177 150.411 251.307 150.707 C 251.437 151.003 251.75 153.488 252.002 156.229 C 252.254 158.97 252.552 161.333 252.664 161.481 C 252.776 161.63 253.083 164.114 253.347 167.003 C 253.61 169.892 253.906 172.316 254.005 172.391 C 254.103 172.465 254.391 174.751 254.646 177.472 C 254.997 181.239 255.213 182.524 255.548 182.859 C 255.949 183.26 258.076 183.3 279.212 183.3 C 305.611 183.3 303.136 183.538 304.003 180.911 C 304.254 180.151 304.61 179.286 304.792 178.99 C 304.975 178.694 305.276 177.966 305.46 177.374 C 305.644 176.781 305.882 176.175 305.991 176.027 C 306.099 175.879 306.407 175.152 306.675 174.411 C 306.944 173.67 307.256 172.94 307.369 172.788 C 307.482 172.636 307.775 171.921 308.021 171.198 C 309.203 167.715 308.89 167.805 319.701 167.827 C 330.806 167.849 329.927 167.417 330.628 173.199 C 330.87 175.199 331.178 177.077 331.311 177.374 C 331.444 177.67 331.688 179.003 331.854 180.337 C 332.02 181.67 332.275 182.882 332.421 183.03 C 332.59 183.202 338.08 183.327 347.488 183.376 C 356.791 183.424 362.29 183.549 362.29 183.712 C 362.29 183.856 362.188 183.973 362.063 183.973 C 361.939 183.973 361.691 184.294 361.512 184.686 C 361.334 185.078 360.946 185.714 360.65 186.1 C 358.568 188.819 357.172 190.741 357.172 190.891 C 357.172 190.987 356.873 191.379 356.507 191.762 C 356.141 192.145 355.405 193.003 354.871 193.67 C 351.194 198.26 344.096 205.108 338.894 209.087 C 338.069 209.719 337.184 210.418 336.929 210.64 C 336.674 210.862 336.185 211.251 335.842 211.505 C 335.499 211.758 334.642 212.394 333.937 212.919 C 333.232 213.443 332.558 213.872 332.439 213.872 C 332.32 213.872 331.988 214.084 331.701 214.343 C 331.037 214.942 328.98 216.312 328.013 216.799 C 327.606 217.004 327.273 217.259 327.273 217.366 C 327.273 217.474 326.788 217.78 326.195 218.047 C 325.603 218.314 325.118 218.626 325.118 218.739 C 325.118 218.852 324.844 219.046 324.51 219.169 C 323.954 219.375 318.792 222.174 317.845 222.784 C 317.623 222.927 316.896 223.3 316.229 223.614 C 315.562 223.927 314.976 224.288 314.927 224.415 C 314.878 224.542 314.713 224.646 314.562 224.646 C 314.305 224.646 313.104 225.177 309.091 227.063 C 308.202 227.48 307.051 227.979 306.532 228.172 C 306.013 228.364 305.529 228.602 305.455 228.699 C 305.38 228.797 304.653 229.094 303.838 229.36 C 303.024 229.626 302.296 229.929 302.222 230.034 C 302.148 230.138 301.421 230.439 300.606 230.703 C 299.791 230.967 299.003 231.271 298.855 231.38 C 298.707 231.489 297.737 231.853 296.7 232.189 C 295.663 232.524 294.694 232.893 294.545 233.008 C 294.397 233.124 293.489 233.422 292.526 233.671 C 291.563 233.92 290.715 234.215 290.64 234.327 C 290.566 234.439 289.626 234.744 288.552 235.005 C 287.478 235.266 286.599 235.57 286.599 235.68 C 286.599 235.791 285.63 236.091 284.444 236.347 C 283.259 236.603 282.29 236.899 282.29 237.004 C 282.29 237.11 281.229 237.416 279.933 237.685 C 278.636 237.953 277.515 238.259 277.441 238.363 C 277.367 238.467 275.912 238.837 274.209 239.185 C 272.505 239.532 270.929 239.92 270.707 240.047 C 270.305 240.276 267.717 240.835 261.818 241.965 C 260.114 242.292 258.599 242.633 258.451 242.724 C 258.303 242.815 256.545 243.113 254.545 243.387 C 252.545 243.66 250.848 243.963 250.774 244.059 C 250.7 244.155 248.64 244.441 246.195 244.695 C 243.751 244.948 241.508 245.261 241.212 245.389 C 240.673 245.622 232.892 246.306 227.071 246.633 C 225.367 246.729 223.852 246.898 223.704 247.009 C 222.653 247.798 187.434 248.001 178.855 247.268 C 177.3 247.135 174.694 246.904 173.064 246.755 C 171.434 246.606 167.737 246.291 164.848 246.056 C 161.96 245.821 159.354 245.523 159.057 245.394 C 158.761 245.265 156.519 244.953 154.074 244.701 C 151.63 244.448 149.569 244.158 149.495 244.058 C 149.421 243.957 147.663 243.651 145.589 243.379 C 143.515 243.106 141.758 242.806 141.684 242.712 C 141.609 242.618 140.155 242.317 138.451 242.043 C 136.747 241.769 135.232 241.454 135.084 241.343 C 134.936 241.232 133.603 240.938 132.121 240.69 C 130.64 240.441 129.232 240.133 128.992 240.005 C 128.753 239.876 127.298 239.504 125.76 239.179 C 124.222 238.853 122.842 238.496 122.694 238.385 C 122.545 238.274 121.487 237.979 120.342 237.728 C 119.197 237.477 118.2 237.176 118.128 237.059 C 118.056 236.942 116.962 236.619 115.698 236.342 C 114.435 236.065 113.401 235.757 113.401 235.659 C 113.401 235.56 112.522 235.266 111.448 235.005 C 110.374 234.744 109.434 234.439 109.36 234.327 C 109.285 234.215 108.437 233.92 107.474 233.671 C 106.511 233.422 105.593 233.11 105.434 232.978 C 105.274 232.846 104.304 232.481 103.279 232.166 C 102.253 231.851 101.293 231.501 101.145 231.388 C 100.997 231.275 100.209 230.967 99.394 230.703 C 98.579 230.439 97.852 230.146 97.778 230.051 C 97.704 229.956 96.946 229.646 96.094 229.361 C 95.242 229.077 94.545 228.773 94.545 228.685 C 94.545 228.597 94.091 228.371 93.535 228.182 C 92.099 227.693 82.961 223.326 82.694 223.001 C 82.62 222.911 81.953 222.537 81.212 222.168 C 78.934 221.036 77.986 220.521 77.845 220.339 C 77.771 220.243 77.135 219.89 76.431 219.553 C 75.727 219.217 75.152 218.843 75.152 218.723 C 75.152 218.603 74.607 218.28 73.94 218.006 C 73.274 217.733 72.729 217.421 72.728 217.313 C 72.728 217.206 72.333 216.916 71.852 216.67 C 71.37 216.423 70.916 216.146 70.842 216.055 C 70.768 215.963 69.919 215.378 68.956 214.754 C 67.993 214.13 67.024 213.453 66.801 213.25 C 66.579 213.047 65.973 212.649 65.455 212.366 C 64.936 212.083 64.353 211.64 64.16 211.38 C 63.966 211.121 63.677 210.909 63.517 210.909 C 63.358 210.909 62.951 210.636 62.613 210.303 C 62.276 209.97 61.717 209.493 61.37 209.243 C 58.287 207.019 48.606 197.883 46.373 195.091 C 45.878 194.472 45.233 193.687 44.941 193.346 C 43.192 191.313 41.953 189.692 40.526 187.574 C 39.94 186.705 39.387 185.933 39.297 185.859 C 39.206 185.785 38.931 185.33 38.684 184.848 C 38.437 184.367 38.14 183.973 38.023 183.973 C 37.906 183.973 37.642 183.543 37.436 183.017 C 37.23 182.492 36.903 181.93 36.709 181.77 C 36.516 181.609 36.112 180.922 35.811 180.243 C 35.511 179.564 35.172 178.944 35.058 178.865 C 34.783 178.673 32.593 174.141 32.593 173.764 C 32.593 173.601 32.478 173.468 32.337 173.468 C 32.196 173.468 31.871 172.801 31.614 171.987 C 31.358 171.172 31.057 170.505 30.946 170.505 C 30.836 170.505 30.544 169.808 30.299 168.956 C 30.053 168.104 29.688 167.044 29.486 166.599 C 29.285 166.155 28.918 165.064 28.669 164.175 C 28.421 163.286 28.123 162.438 28.007 162.29 C 27.891 162.141 27.579 160.99 27.313 159.731 C 27.048 158.471 26.748 157.38 26.647 157.306 C 26.546 157.232 26.244 155.657 25.976 153.805 C 25.708 151.953 25.407 150.377 25.307 150.303 C 24.134 149.433 24.181 120.135 25.355 120.135 C 25.484 120.135 25.589 119.867 25.589 119.54 C 25.589 118.597 26.463 113.55 26.652 113.401 C 26.747 113.327 27.045 112.296 27.317 111.111 C 27.588 109.926 27.899 108.835 28.007 108.687 C 28.116 108.539 28.351 107.818 28.53 107.086 C 28.709 106.354 29.075 105.263 29.343 104.662 C 29.611 104.061 30.045 102.908 30.308 102.1 C 30.823 100.521 31.595 99.521 32.458 99.315 C 33.255 99.126 42.326 99.106 43.021 99.292 M 325.216 132.159 C 325.31 132.846 325.387 133.792 325.387 134.26 C 325.387 134.728 325.492 135.226 325.619 135.367 C 325.747 135.508 326.069 137.684 326.335 140.202 C 326.6 142.721 326.909 144.902 327.021 145.051 C 327.132 145.199 327.31 146.423 327.415 147.772 C 327.648 150.776 328.102 150.564 321.428 150.569 L 316.526 150.572 L 316.826 149.697 C 316.991 149.215 317.274 148.579 317.456 148.283 C 317.637 147.987 317.937 147.259 318.123 146.667 C 318.31 146.074 318.536 145.529 318.627 145.455 C 318.718 145.38 319.024 144.653 319.307 143.838 C 319.59 143.024 319.896 142.296 319.988 142.222 C 320.08 142.148 320.393 141.36 320.684 140.471 C 320.974 139.582 321.364 138.695 321.549 138.499 C 321.734 138.304 321.886 137.971 321.886 137.759 C 321.886 137.548 322.249 136.606 322.694 135.665 C 323.138 134.724 323.502 133.813 323.502 133.641 C 323.502 133.167 324.609 130.909 324.842 130.909 C 324.953 130.909 325.122 131.471 325.216 132.159" stroke-linecap="round" />
</g>
		<g transform="matrix(1 0 0 1 -199.96 -134.68)" id="path1"  >
<path style="stroke: none; stroke-width: 1; stroke-dasharray: none; stroke-linecap: butt; stroke-dashoffset: 0; stroke-linejoin: miter; stroke-miterlimit: 4; fill: rgb(4,164,228); fill-opacity: 0.16; fill-rule: evenodd; opacity: 1;" vector-effect="non-scaling-stroke"  transform=" translate(0, 0)" d="" stroke-linecap="round" />
</g>
		<g transform="matrix(1 0 0 1 -199.96 -134.68)" id="path2"  >
<path style="stroke: none; stroke-width: 1; stroke-dasharray: none; stroke-linecap: butt; stroke-dashoffset: 0; stroke-linejoin: miter; stroke-miterlimit: 4; fill: rgb(4,164,228); fill-opacity: 0.16; fill-rule: evenodd; opacity: 1;" vector-effect="non-scaling-stroke"  transform=" translate(0, 0)" d="" stroke-linecap="round" />
</g>
		<g transform="matrix(1 0 0 1 -199.96 -134.68)" id="path3"  >
<path style="stroke: none; stroke-width: 1; stroke-dasharray: none; stroke-linecap: butt; stroke-dashoffset: 0; stroke-linejoin: miter; stroke-miterlimit: 4; fill: rgb(4,164,228); fill-opacity: 0.16; fill-rule: evenodd; opacity: 1;" vector-effect="non-scaling-stroke"  transform=" translate(0, 0)" d="" stroke-linecap="round" />
</g>
		<g transform="matrix(1 0 0 1 -199.96 -134.68)" id="path4"  >
<path style="stroke: none; stroke-width: 1; stroke-dasharray: none; stroke-linecap: butt; stroke-dashoffset: 0; stroke-linejoin: miter; stroke-miterlimit: 4; fill: rgb(4,164,228); fill-opacity: 0.16; fill-rule: evenodd; opacity: 1;" vector-effect="non-scaling-stroke"  transform=" translate(0, 0)" d="" stroke-linecap="round" />
</g>
</g>
</g>
</svg>